<?xml version="1.0" standalone="no"?>
<!DOCTYPE svg PUBLIC "-//W3C//DTD SVG 20010904//EN"
 "http://www.w3.org/TR/2001/REC-SVG-20010904/DTD/svg10.dtd">
<svg version="1.0" xmlns="http://www.w3.org/2000/svg"
 width="900.000000pt" height="900.000000pt" viewBox="0 0 900.000000 900.000000"
 preserveAspectRatio="xMidYMid meet">
<metadata>
Created by potrace 1.14, written by Peter Selinger 2001-2017
</metadata>
<g transform="translate(0.000000,900.000000) scale(0.100000,-0.100000)"
fill="#000000" stroke="none">
<path d="M348 8989 c-164 -24 -302 -155 -337 -319 -9 -42 -11 -1058 -9 -4205
l3 -4150 32 -67 c59 -126 169 -213 298 -238 44 -8 1150 -10 4200 -8 l4140 3
57 23 c109 44 196 131 240 240 l23 57 3 4140 c1 2772 -1 4158 -8 4195 -31 170
-173 305 -347 330 -85 12 -8212 11 -8295 -1z m5109 -464 c64 -19 134 -80 167
-147 l26 -52 0 -933 c0 -913 0 -934 -20 -976 -32 -67 -76 -113 -138 -144 l-57
-28 -940 0 -940 0 -49 24 c-63 31 -113 82 -142 145 l-24 51 0 921 c0 1022 -3
972 67 1053 34 40 89 75 143 92 14 4 437 8 941 8 785 1 923 -1 966 -14z
m-2862 -2899 c52 -24 111 -81 142 -138 17 -31 18 -86 18 -978 l0 -945 -23 -45
c-32 -60 -73 -102 -130 -131 l-47 -24 -955 0 -955 0 -40 22 c-50 26 -118 98
-142 150 -17 36 -18 95 -18 968 l0 930 28 57 c30 61 88 116 148 142 29 13 165
15 979 16 l945 0 50 -24z m5755 -2872 c41 -12 67 -29 111 -73 96 -96 90 -26
87 -1082 l-3 -914 -24 -45 c-32 -61 -76 -107 -136 -138 l-50 -27 -945 0 -945
0 -51 27 c-68 36 -130 108 -149 171 -21 72 -22 1841 -1 1900 31 84 99 152 183
183 31 11 209 13 954 14 808 0 922 -2 969 -16z"/>
</g>
</svg>
